<?xml version="1.0" encoding="UTF-8"?>
<svg xmlns="http://www.w3.org/2000/svg" width="880" height="726" viewBox="0 0 880 726" class="chart wide-chart">
<style>
  svg { --bg: #f5eedc; --fg: #2a2520; --muted: #6b6155; --line: #dccfb3; --s1: #2b5c8a; --s2: #b85c25; font-family: "Times New Roman", Times, "Liberation Serif", serif; font-size: 14px; }
  svg.big { font-size: 17px; }
  .grid { stroke: var(--line); stroke-width: 1; } .axis { stroke: var(--fg); stroke-width: .9; } .rule { stroke: var(--line); stroke-width: 1; }
  .frame { fill: none; stroke: var(--fg); stroke-width: .9; } .tk { stroke: var(--fg); stroke-width: .9; }
  .legbox { fill: var(--bg); stroke: var(--fg); stroke-width: .7; } .it { font-style: italic; }
  .tick, .axl, .leg { fill: var(--fg); } .leg.blk, .leg.b { font-weight: bold; } .cbt { fill: var(--fg); font-size: 11px; } svg.big .cbt { font-size: 12.5px; }
  .line { fill: none; stroke-width: 1.6; stroke-linecap: round; stroke-linejoin: round; } .line.dim { opacity: .3; } .line.hl { stroke-width: 2.4; }
  .s0 { stroke: var(--muted); } .s1 { stroke: var(--s1); } .s2 { stroke: var(--s2); }
  .hp { fill: var(--s2); } .hn { fill: var(--s1); }
  .dot { stroke: var(--bg); stroke-width: 1.2; } .dot.s0 { fill: var(--muted); } .dot.s1 { fill: var(--s1); } .dot.s2 { fill: var(--s2); }
  .guide { fill: none; stroke: var(--muted); stroke-width: 1; stroke-dasharray: 3 3; } .guide.hm { stroke: var(--fg); }
  .span { fill: var(--fg); opacity: .08; }
  .link { stroke: var(--muted); stroke-width: 1.2; opacity: .6; }
  .mk-calm { fill: var(--s1); stroke: var(--bg); stroke-width: 1.2; } .mk-ga2m { fill: var(--bg); stroke: var(--s2); stroke-width: 1.7; }
</style>
<text x="0" y="20" class="leg blk">Regression</text><rect x="554" y="4" width="206" height="24" class="legbox"/><circle cx="568" cy="16" r="3.6" class="mk-calm"/><text x="578" y="20.5" class="leg">CALM</text><circle cx="638" cy="16" r="3.3" class="mk-ga2m"/><text x="648" y="20.5" class="leg">GA²M (EB²M)</text><text x="774" y="20.5" class="tick">CALM · GA²M</text><line x1="774" x2="880" y1="43" y2="43" class="rule"/><line x1="170.0" x2="170.0" y1="44" y2="374" class="axis"/><line x1="170.0" x2="170.0" y1="374" y2="370.5" class="tk"/><line x1="170.0" x2="170.0" y1="44" y2="47.5" class="tk"/><text x="170.0" y="389" class="tick" text-anchor="middle">GAM</text><line x1="277.3" x2="277.3" y1="44" y2="374" class="grid"/><line x1="277.3" x2="277.3" y1="374" y2="370.5" class="tk"/><line x1="277.3" x2="277.3" y1="44" y2="47.5" class="tk"/><text x="277.3" y="389" class="tick" text-anchor="middle">10%</text><line x1="384.5" x2="384.5" y1="44" y2="374" class="grid"/><line x1="384.5" x2="384.5" y1="374" y2="370.5" class="tk"/><line x1="384.5" x2="384.5" y1="44" y2="47.5" class="tk"/><text x="384.5" y="389" class="tick" text-anchor="middle">20%</text><line x1="491.8" x2="491.8" y1="44" y2="374" class="grid"/><line x1="491.8" x2="491.8" y1="374" y2="370.5" class="tk"/><line x1="491.8" x2="491.8" y1="44" y2="47.5" class="tk"/><text x="491.8" y="389" class="tick" text-anchor="middle">30%</text><line x1="599.1" x2="599.1" y1="44" y2="374" class="grid"/><line x1="599.1" x2="599.1" y1="374" y2="370.5" class="tk"/><line x1="599.1" x2="599.1" y1="44" y2="47.5" class="tk"/><text x="599.1" y="389" class="tick" text-anchor="middle">40%</text><line x1="706.4" x2="706.4" y1="44" y2="374" class="grid"/><line x1="706.4" x2="706.4" y1="374" y2="370.5" class="tk"/><line x1="706.4" x2="706.4" y1="44" y2="47.5" class="tk"/><text x="706.4" y="389" class="tick" text-anchor="middle">50%</text><text x="465.0" y="404" class="axl" text-anchor="middle">% lower RMSE than the GAM</text><text x="158" y="59.0" class="tick row" text-anchor="end">Airfoil</text><line x1="522.1" x2="730.0" y1="55.0" y2="55.0" class="link"/><circle cx="730.0" cy="55.0" r="3.3" class="mk-ga2m"/><circle cx="522.1" cy="55.0" r="3.6" class="mk-calm"/><text x="774" y="59.0" class="tick">+33% · +52%</text><text x="158" y="81.0" class="tick row" text-anchor="end">Bike Sharing</text><line x1="574.5" x2="655.9" y1="77.0" y2="77.0" class="link"/><circle cx="655.9" cy="77.0" r="3.3" class="mk-ga2m"/><circle cx="574.5" cy="77.0" r="3.6" class="mk-calm"/><text x="774" y="81.0" class="tick">+38% · +45%</text><text x="158" y="103.0" class="tick row" text-anchor="end">Parkinsons Motor</text><line x1="689.4" x2="629.4" y1="99.0" y2="99.0" class="link"/><circle cx="629.4" cy="99.0" r="3.3" class="mk-ga2m"/><circle cx="689.4" cy="99.0" r="3.6" class="mk-calm"/><text x="774" y="103.0" class="tick">+48% · +43%</text><text x="158" y="125.0" class="tick row" text-anchor="end">Parkinsons Total</text><line x1="562.4" x2="614.5" y1="121.0" y2="121.0" class="link"/><circle cx="614.5" cy="121.0" r="3.3" class="mk-ga2m"/><circle cx="562.4" cy="121.0" r="3.6" class="mk-calm"/><text x="774" y="125.0" class="tick">+37% · +41%</text><text x="158" y="147.0" class="tick row" text-anchor="end">Seoul Bike</text><line x1="343.8" x2="401.7" y1="143.0" y2="143.0" class="link"/><circle cx="401.7" cy="143.0" r="3.3" class="mk-ga2m"/><circle cx="343.8" cy="143.0" r="3.6" class="mk-calm"/><text x="774" y="147.0" class="tick">+16% · +22%</text><text x="158" y="169.0" class="tick row" text-anchor="end">California Housing</text><line x1="228.5" x2="287.0" y1="165.0" y2="165.0" class="link"/><circle cx="287.0" cy="165.0" r="3.3" class="mk-ga2m"/><circle cx="228.5" cy="165.0" r="3.6" class="mk-calm"/><text x="774" y="169.0" class="tick">+5% · +11%</text><text x="158" y="191.0" class="tick row" text-anchor="end">CCPP</text><line x1="170.0" x2="278.7" y1="187.0" y2="187.0" class="link"/><circle cx="278.7" cy="187.0" r="3.3" class="mk-ga2m"/><circle cx="170.0" cy="187.0" r="3.6" class="mk-calm"/><text x="774" y="191.0" class="tick">+0% · +10%</text><text x="158" y="213.0" class="tick row" text-anchor="end">Energy</text><line x1="181.5" x2="252.2" y1="209.0" y2="209.0" class="link"/><circle cx="252.2" cy="209.0" r="3.3" class="mk-ga2m"/><circle cx="181.5" cy="209.0" r="3.6" class="mk-calm"/><text x="774" y="213.0" class="tick">+1% · +8%</text><text x="158" y="235.0" class="tick row" text-anchor="end">Sensory</text><line x1="237.0" x2="237.0" y1="231.0" y2="231.0" class="link"/><circle cx="237.0" cy="231.0" r="3.3" class="mk-ga2m"/><circle cx="237.0" cy="231.0" r="3.6" class="mk-calm"/><text x="774" y="235.0" class="tick">+6% · +6%</text><text x="158" y="257.0" class="tick row" text-anchor="end">No2</text><line x1="170.0" x2="213.8" y1="253.0" y2="253.0" class="link"/><circle cx="213.8" cy="253.0" r="3.3" class="mk-ga2m"/><circle cx="170.0" cy="253.0" r="3.6" class="mk-calm"/><text x="774" y="257.0" class="tick">+0% · +4%</text><text x="158" y="279.0" class="tick row" text-anchor="end">Wine</text><line x1="170.0" x2="200.6" y1="275.0" y2="275.0" class="link"/><circle cx="200.6" cy="275.0" r="3.3" class="mk-ga2m"/><circle cx="170.0" cy="275.0" r="3.6" class="mk-calm"/><text x="774" y="279.0" class="tick">+0% · +3%</text><text x="158" y="301.0" class="tick row" text-anchor="end">Electrical</text><line x1="170.0" x2="170.0" y1="297.0" y2="297.0" class="link"/><circle cx="170.0" cy="297.0" r="3.3" class="mk-ga2m"/><circle cx="170.0" cy="297.0" r="3.6" class="mk-calm"/><text x="774" y="301.0" class="tick">+0% · +0%</text><text x="158" y="323.0" class="tick row" text-anchor="end">Elevators</text><line x1="170.0" x2="170.0" y1="319.0" y2="319.0" class="link"/><circle cx="170.0" cy="319.0" r="3.3" class="mk-ga2m"/><circle cx="170.0" cy="319.0" r="3.6" class="mk-calm"/><text x="774" y="323.0" class="tick">+0% · +0%</text><text x="158" y="345.0" class="tick row" text-anchor="end">Skill Craft</text><line x1="170.0" x2="170.0" y1="341.0" y2="341.0" class="link"/><circle cx="170.0" cy="341.0" r="3.3" class="mk-ga2m"/><circle cx="170.0" cy="341.0" r="3.6" class="mk-calm"/><text x="774" y="345.0" class="tick">+0% · +0%</text><text x="158" y="367.0" class="tick row" text-anchor="end">Ailerons</text><line x1="170.0" x2="170.0" y1="363.0" y2="363.0" class="link"/><circle cx="170.0" cy="363.0" r="3.3" class="mk-ga2m"/><circle cx="170.0" cy="363.0" r="3.6" class="mk-calm"/><text x="774" y="367.0" class="tick">+0% · +0%</text><rect x="170" y="44" width="590" height="330" class="frame"/><text x="0" y="438" class="leg blk">Classification</text><line x1="774" x2="880" y1="461" y2="461" class="rule"/><line x1="170.0" x2="170.0" y1="462" y2="682" class="grid"/><line x1="170.0" x2="170.0" y1="682" y2="678.5" class="tk"/><line x1="170.0" x2="170.0" y1="462" y2="465.5" class="tk"/><text x="170.0" y="697" class="tick" text-anchor="middle">−4</text><line x1="268.3" x2="268.3" y1="462" y2="682" class="grid"/><line x1="268.3" x2="268.3" y1="682" y2="678.5" class="tk"/><line x1="268.3" x2="268.3" y1="462" y2="465.5" class="tk"/><text x="268.3" y="697" class="tick" text-anchor="middle">−2</text><line x1="366.7" x2="366.7" y1="462" y2="682" class="axis"/><line x1="366.7" x2="366.7" y1="682" y2="678.5" class="tk"/><line x1="366.7" x2="366.7" y1="462" y2="465.5" class="tk"/><text x="366.7" y="697" class="tick" text-anchor="middle">GAM</text><line x1="465.0" x2="465.0" y1="462" y2="682" class="grid"/><line x1="465.0" x2="465.0" y1="682" y2="678.5" class="tk"/><line x1="465.0" x2="465.0" y1="462" y2="465.5" class="tk"/><text x="465.0" y="697" class="tick" text-anchor="middle">2</text><line x1="563.3" x2="563.3" y1="462" y2="682" class="grid"/><line x1="563.3" x2="563.3" y1="682" y2="678.5" class="tk"/><line x1="563.3" x2="563.3" y1="462" y2="465.5" class="tk"/><text x="563.3" y="697" class="tick" text-anchor="middle">4</text><line x1="661.7" x2="661.7" y1="462" y2="682" class="grid"/><line x1="661.7" x2="661.7" y1="682" y2="678.5" class="tk"/><line x1="661.7" x2="661.7" y1="462" y2="465.5" class="tk"/><text x="661.7" y="697" class="tick" text-anchor="middle">6</text><line x1="760.0" x2="760.0" y1="462" y2="682" class="grid"/><line x1="760.0" x2="760.0" y1="682" y2="678.5" class="tk"/><line x1="760.0" x2="760.0" y1="462" y2="465.5" class="tk"/><text x="760.0" y="697" class="tick" text-anchor="middle">8</text><text x="465.0" y="712" class="axl" text-anchor="middle">accuracy points over the GAM</text><text x="158" y="477.0" class="tick row" text-anchor="end">Churn</text><line x1="715.7" x2="710.8" y1="473.0" y2="473.0" class="link"/><circle cx="710.8" cy="473.0" r="3.3" class="mk-ga2m"/><circle cx="715.7" cy="473.0" r="3.6" class="mk-calm"/><text x="774" y="477.0" class="tick">+7.1 · +7.0</text><text x="158" y="499.0" class="tick row" text-anchor="end">Phoneme</text><line x1="474.8" x2="543.7" y1="495.0" y2="495.0" class="link"/><circle cx="543.7" cy="495.0" r="3.3" class="mk-ga2m"/><circle cx="474.8" cy="495.0" r="3.6" class="mk-calm"/><text x="774" y="499.0" class="tick">+2.2 · +3.6</text><text x="158" y="521.0" class="tick row" text-anchor="end">Magic</text><line x1="401.1" x2="435.5" y1="517.0" y2="517.0" class="link"/><circle cx="435.5" cy="517.0" r="3.3" class="mk-ga2m"/><circle cx="401.1" cy="517.0" r="3.6" class="mk-calm"/><text x="774" y="521.0" class="tick">+0.7 · +1.4</text><text x="158" y="543.0" class="tick row" text-anchor="end">Bank</text><line x1="376.5" x2="396.2" y1="539.0" y2="539.0" class="link"/><circle cx="396.2" cy="539.0" r="3.3" class="mk-ga2m"/><circle cx="376.5" cy="539.0" r="3.6" class="mk-calm"/><text x="774" y="543.0" class="tick">+0.2 · +0.6</text><text x="158" y="565.0" class="tick row" text-anchor="end">HELOC</text><line x1="371.6" x2="376.5" y1="561.0" y2="561.0" class="link"/><circle cx="376.5" cy="561.0" r="3.3" class="mk-ga2m"/><circle cx="371.6" cy="561.0" r="3.6" class="mk-calm"/><text x="774" y="565.0" class="tick">+0.1 · +0.2</text><text x="158" y="587.0" class="tick row" text-anchor="end">Adult</text><line x1="366.7" x2="371.6" y1="583.0" y2="583.0" class="link"/><circle cx="371.6" cy="583.0" r="3.3" class="mk-ga2m"/><circle cx="366.7" cy="583.0" r="3.6" class="mk-calm"/><text x="774" y="587.0" class="tick">+0.0 · +0.1</text><text x="158" y="609.0" class="tick row" text-anchor="end">COMPAS</text><line x1="342.1" x2="371.6" y1="605.0" y2="605.0" class="link"/><circle cx="371.6" cy="605.0" r="3.3" class="mk-ga2m"/><circle cx="342.1" cy="605.0" r="3.6" class="mk-calm"/><text x="774" y="609.0" class="tick">−0.5 · +0.1</text><text x="158" y="631.0" class="tick row" text-anchor="end">Appendicitis</text><line x1="233.9" x2="371.6" y1="627.0" y2="627.0" class="link"/><circle cx="371.6" cy="627.0" r="3.3" class="mk-ga2m"/><circle cx="233.9" cy="627.0" r="3.6" class="mk-calm"/><text x="774" y="631.0" class="tick">−2.7 · +0.1</text><text x="158" y="653.0" class="tick row" text-anchor="end">MIMIC2</text><line x1="366.7" x2="366.7" y1="649.0" y2="649.0" class="link"/><circle cx="366.7" cy="649.0" r="3.3" class="mk-ga2m"/><circle cx="366.7" cy="649.0" r="3.6" class="mk-calm"/><text x="774" y="653.0" class="tick">+0.0 · +0.0</text><text x="158" y="675.0" class="tick row" text-anchor="end">SPECTF</text><line x1="224.1" x2="307.7" y1="671.0" y2="671.0" class="link"/><circle cx="307.7" cy="671.0" r="3.3" class="mk-ga2m"/><circle cx="224.1" cy="671.0" r="3.6" class="mk-calm"/><text x="774" y="675.0" class="tick">−2.9 · −1.2</text><rect x="170" y="462" width="590" height="220" class="frame"/></svg>
