<?xml version="1.0" encoding="UTF-8"?>
<svg xmlns="http://www.w3.org/2000/svg" width="300" height="176" viewBox="0 0 300 176" class="chart">
<style>
  svg { --bg: #f5eedc; --fg: #2a2520; --muted: #6b6155; --line: #dccfb3; --s1: #2b5c8a; --s2: #b85c25; font-family: "Times New Roman", Times, "Liberation Serif", serif; font-size: 14px; }
  svg.big { font-size: 17px; }
  .grid { stroke: var(--line); stroke-width: 1; } .axis { stroke: var(--fg); stroke-width: .9; } .rule { stroke: var(--line); stroke-width: 1; }
  .frame { fill: none; stroke: var(--fg); stroke-width: .9; } .tk { stroke: var(--fg); stroke-width: .9; }
  .legbox { fill: var(--bg); stroke: var(--fg); stroke-width: .7; } .it { font-style: italic; }
  .tick, .axl, .leg { fill: var(--fg); } .leg.blk, .leg.b { font-weight: bold; } .cbt { fill: var(--fg); font-size: 11px; } svg.big .cbt { font-size: 12.5px; }
  .line { fill: none; stroke-width: 1.6; stroke-linecap: round; stroke-linejoin: round; } .line.dim { opacity: .3; } .line.hl { stroke-width: 2.4; }
  .s0 { stroke: var(--muted); } .s1 { stroke: var(--s1); } .s2 { stroke: var(--s2); }
  .hp { fill: var(--s2); } .hn { fill: var(--s1); }
  .dot { stroke: var(--bg); stroke-width: 1.2; } .dot.s0 { fill: var(--muted); } .dot.s1 { fill: var(--s1); } .dot.s2 { fill: var(--s2); }
  .guide { fill: none; stroke: var(--muted); stroke-width: 1; stroke-dasharray: 3 3; } .guide.hm { stroke: var(--fg); }
  .span { fill: var(--fg); opacity: .08; }
  .link { stroke: var(--muted); stroke-width: 1.2; opacity: .6; }
  .mk-calm { fill: var(--s1); stroke: var(--bg); stroke-width: 1.2; } .mk-ga2m { fill: var(--bg); stroke: var(--s2); stroke-width: 1.7; }
</style>
<path d="M60.2,79.9 L68.5,82.3 L76.8,83.3 L85.2,84.7 L93.5,85.1 L101.8,82.4 L110.2,75.0 L118.5,57.2 L126.8,39.1 L135.2,58.5 L143.5,65.2 L151.8,62.4 L160.2,57.6 L168.5,57.7 L176.8,59.7 L185.2,58.1 L193.5,50.4 L201.8,30.5 L210.2,34.1 L218.5,48.7 L226.8,59.1 L235.2,65.4 L243.5,70.5 L251.8,75.7" class="line s0"/><path d="M126.8,90 L126.8,39.1 L56,39.1" class="guide"/><circle cx="126.8" cy="39.1" r="3.2" class="dot s0"/><rect x="56" y="10" width="200" height="80" class="frame"/><line x1="60.2" x2="60.2" y1="90" y2="86.5" class="tk"/><line x1="60.2" x2="60.2" y1="10" y2="13.5" class="tk"/><line x1="110.2" x2="110.2" y1="90" y2="86.5" class="tk"/><line x1="110.2" x2="110.2" y1="10" y2="13.5" class="tk"/><line x1="160.2" x2="160.2" y1="90" y2="86.5" class="tk"/><line x1="160.2" x2="160.2" y1="10" y2="13.5" class="tk"/><line x1="210.2" x2="210.2" y1="90" y2="86.5" class="tk"/><line x1="210.2" x2="210.2" y1="10" y2="13.5" class="tk"/><line x1="251.8" x2="251.8" y1="90" y2="86.5" class="tk"/><line x1="251.8" x2="251.8" y1="10" y2="13.5" class="tk"/><line x1="56" x2="59.5" y1="90.0" y2="90.0" class="tk"/><line x1="256" x2="252.5" y1="90.0" y2="90.0" class="tk"/><text x="51" y="94.0" class="tick" text-anchor="end">−200</text><line x1="56" x2="59.5" y1="63.3" y2="63.3" class="tk"/><line x1="256" x2="252.5" y1="63.3" y2="63.3" class="tk"/><text x="51" y="67.3" class="tick" text-anchor="end">0</text><line x1="56" x2="59.5" y1="36.7" y2="36.7" class="tk"/><line x1="256" x2="252.5" y1="36.7" y2="36.7" class="tk"/><text x="51" y="40.7" class="tick" text-anchor="end">200</text><line x1="56" x2="59.5" y1="10.0" y2="10.0" class="tk"/><line x1="256" x2="252.5" y1="10.0" y2="10.0" class="tk"/><text x="51" y="14.0" class="tick" text-anchor="end">400</text><text transform="translate(12,50.0) rotate(-90)" class="axl" text-anchor="middle">rentals / h</text><rect x="56.00" y="98.00" width="8.33" height="23.00" shape-rendering="crispEdges" class="hn" opacity="0.13"/><rect x="64.33" y="98.00" width="8.33" height="23.00" shape-rendering="crispEdges" class="hn" opacity="0.13"/><rect x="72.67" y="98.00" width="8.33" height="23.00" shape-rendering="crispEdges" class="hn" opacity="0.12"/><rect x="81.00" y="98.00" width="8.33" height="23.00" shape-rendering="crispEdges" class="hn" opacity="0.10"/><rect x="89.33" y="98.00" width="8.33" height="23.00" shape-rendering="crispEdges" class="hn" opacity="0.09"/><rect x="97.67" y="98.00" width="8.33" height="23.00" shape-rendering="crispEdges" class="hn" opacity="0.07"/><rect x="106.00" y="98.00" width="8.33" height="23.00" shape-rendering="crispEdges" class="hp" opacity="0.11"/><rect x="114.33" y="98.00" width="8.33" height="23.00" shape-rendering="crispEdges" class="hp" opacity="0.31"/><rect x="122.67" y="98.00" width="8.33" height="23.00" shape-rendering="crispEdges" class="hp" opacity="0.46"/><rect x="131.00" y="98.00" width="8.33" height="23.00" shape-rendering="crispEdges" class="hp" opacity="0.13"/><rect x="139.33" y="98.00" width="8.33" height="23.00" shape-rendering="crispEdges" class="hn" opacity="0.18"/><rect x="147.67" y="98.00" width="8.33" height="23.00" shape-rendering="crispEdges" class="hn" opacity="0.20"/><rect x="156.00" y="98.00" width="8.33" height="23.00" shape-rendering="crispEdges" class="hn" opacity="0.21"/><rect x="164.33" y="98.00" width="8.33" height="23.00" shape-rendering="crispEdges" class="hn" opacity="0.21"/><rect x="172.67" y="98.00" width="8.33" height="23.00" shape-rendering="crispEdges" class="hn" opacity="0.21"/><rect x="181.00" y="98.00" width="8.33" height="23.00" shape-rendering="crispEdges" class="hn" opacity="0.19"/><rect x="189.33" y="98.00" width="8.33" height="23.00" shape-rendering="crispEdges" class="hn" opacity="0.11"/><rect x="197.67" y="98.00" width="8.33" height="23.00" shape-rendering="crispEdges" class="hp" opacity="0.24"/><rect x="206.00" y="98.00" width="8.33" height="23.00" shape-rendering="crispEdges" class="hp" opacity="0.25"/><rect x="214.33" y="98.00" width="8.33" height="23.00" shape-rendering="crispEdges" class="hp" opacity="0.12"/><rect x="222.67" y="98.00" width="8.33" height="23.00" shape-rendering="crispEdges" class="hp" opacity="0.07"/><rect x="231.00" y="98.00" width="8.33" height="23.00" shape-rendering="crispEdges" class="hn" opacity="0.08"/><rect x="239.33" y="98.00" width="8.33" height="23.00" shape-rendering="crispEdges" class="hn" opacity="0.10"/><rect x="247.67" y="98.00" width="8.33" height="23.00" shape-rendering="crispEdges" class="hn" opacity="0.11"/><rect x="56.00" y="121.00" width="8.33" height="23.00" shape-rendering="crispEdges" class="hp" opacity="0.25"/><rect x="64.33" y="121.00" width="8.33" height="23.00" shape-rendering="crispEdges" class="hp" opacity="0.25"/><rect x="72.67" y="121.00" width="8.33" height="23.00" shape-rendering="crispEdges" class="hp" opacity="0.23"/><rect x="81.00" y="121.00" width="8.33" height="23.00" shape-rendering="crispEdges" class="hp" opacity="0.19"/><rect x="89.33" y="121.00" width="8.33" height="23.00" shape-rendering="crispEdges" class="hp" opacity="0.16"/><rect x="97.67" y="121.00" width="8.33" height="23.00" shape-rendering="crispEdges" class="hp" opacity="0.12"/><rect x="106.00" y="121.00" width="8.33" height="23.00" shape-rendering="crispEdges" class="hn" opacity="0.17"/><rect x="114.33" y="121.00" width="8.33" height="23.00" shape-rendering="crispEdges" class="hn" opacity="0.59"/><rect x="122.67" y="121.00" width="8.33" height="23.00" shape-rendering="crispEdges" class="hn" opacity="0.85"/><rect x="131.00" y="121.00" width="8.33" height="23.00" shape-rendering="crispEdges" class="hn" opacity="0.22"/><rect x="139.33" y="121.00" width="8.33" height="23.00" shape-rendering="crispEdges" class="hp" opacity="0.36"/><rect x="147.67" y="121.00" width="8.33" height="23.00" shape-rendering="crispEdges" class="hp" opacity="0.41"/><rect x="156.00" y="121.00" width="8.33" height="23.00" shape-rendering="crispEdges" class="hp" opacity="0.42"/><rect x="164.33" y="121.00" width="8.33" height="23.00" shape-rendering="crispEdges" class="hp" opacity="0.42"/><rect x="172.67" y="121.00" width="8.33" height="23.00" shape-rendering="crispEdges" class="hp" opacity="0.42"/><rect x="181.00" y="121.00" width="8.33" height="23.00" shape-rendering="crispEdges" class="hp" opacity="0.38"/><rect x="189.33" y="121.00" width="8.33" height="23.00" shape-rendering="crispEdges" class="hp" opacity="0.11"/><rect x="197.67" y="121.00" width="8.33" height="23.00" shape-rendering="crispEdges" class="hn" opacity="0.51"/><rect x="206.00" y="121.00" width="8.33" height="23.00" shape-rendering="crispEdges" class="hn" opacity="0.54"/><rect x="214.33" y="121.00" width="8.33" height="23.00" shape-rendering="crispEdges" class="hn" opacity="0.29"/><rect x="222.67" y="121.00" width="8.33" height="23.00" shape-rendering="crispEdges" class="hn" opacity="0.17"/><rect x="231.00" y="121.00" width="8.33" height="23.00" shape-rendering="crispEdges" class="hn" opacity="0.08"/><rect x="239.33" y="121.00" width="8.33" height="23.00" shape-rendering="crispEdges" class="hp" opacity="0.08"/><rect x="247.67" y="121.00" width="8.33" height="23.00" shape-rendering="crispEdges" class="hp" opacity="0.10"/><line x1="126.8" x2="126.8" y1="121.0" y2="98.0" class="guide hm"/><rect x="56" y="98" width="200" height="46" class="frame"/><line x1="60.2" x2="60.2" y1="144" y2="140.5" class="tk"/><line x1="60.2" x2="60.2" y1="98" y2="101.5" class="tk"/><text x="60.2" y="159" class="tick" text-anchor="middle">0</text><line x1="110.2" x2="110.2" y1="144" y2="140.5" class="tk"/><line x1="110.2" x2="110.2" y1="98" y2="101.5" class="tk"/><text x="110.2" y="159" class="tick" text-anchor="middle">6</text><line x1="160.2" x2="160.2" y1="144" y2="140.5" class="tk"/><line x1="160.2" x2="160.2" y1="98" y2="101.5" class="tk"/><text x="160.2" y="159" class="tick" text-anchor="middle">12</text><line x1="210.2" x2="210.2" y1="144" y2="140.5" class="tk"/><line x1="210.2" x2="210.2" y1="98" y2="101.5" class="tk"/><text x="210.2" y="159" class="tick" text-anchor="middle">18</text><line x1="251.8" x2="251.8" y1="144" y2="140.5" class="tk"/><line x1="251.8" x2="251.8" y1="98" y2="101.5" class="tk"/><text x="251.8" y="159" class="tick" text-anchor="middle">23</text><text x="156.0" y="173" class="axl" text-anchor="middle">hour of day</text><text x="51" y="113.5" class="tick" text-anchor="end">work</text><text x="51" y="136.5" class="tick" text-anchor="end">off</text><defs><linearGradient id="cbpgb" x1="0" y1="0" x2="0" y2="1"><stop offset="0" style="stop-color:var(--s2);stop-opacity:.96"/><stop offset="1" style="stop-color:var(--s2);stop-opacity:.06"/></linearGradient><linearGradient id="cbngb" x1="0" y1="0" x2="0" y2="1"><stop offset="0" style="stop-color:var(--s1);stop-opacity:.06"/><stop offset="1" style="stop-color:var(--s1);stop-opacity:.96"/></linearGradient></defs><rect x="264" y="98" width="7" height="23.0" fill="url(#cbpgb)"/><rect x="264" y="121.0" width="7" height="23.0" fill="url(#cbngb)"/><rect x="264" y="98" width="7" height="46" class="frame"/><line x1="271" x2="273.5" y1="98.0" y2="98.0" class="tk"/><text x="275" y="101.5" class="cbt">+230</text><line x1="271" x2="273.5" y1="121.0" y2="121.0" class="tk"/><text x="275" y="124.5" class="cbt">0</text><line x1="271" x2="273.5" y1="144.0" y2="144.0" class="tk"/><text x="275" y="147.5" class="cbt">−230</text></svg>
